<?xml version="1.0" encoding="UTF-8"?>
<svg xmlns="http://www.w3.org/2000/svg" viewBox="130 113 290 200">
  <defs>
    <style>
      .mpi1 { fill: #0a0080; }
      .mpi2 { fill: #fff; }
      .mpi3 { fill: #00bcff; }
    </style>
  </defs>
  <path class="mpi3" d="m274.38,116.94c-77.83,0-140.91,40.36-140.91,90.15s63.09,94.05,140.91,94.05,140.91-44.27,140.91-94.05-63.09-90.15-140.91-90.15Z"/>
  <path class="mpi2" d="m228.53,179.22c-.07.14-1.45,1.56-.55,2.71,2.18,2.78,8.91,4.38,15.72,2.85,4.05-.91,9.25-5.04,14.28-9.03,5.45-4.33,10.86-8.67,16.3-10.39,5.76-1.83,9.45-1.05,11.89-.31,2.67.8,5.82,2.56,10.84,6.32,9.45,7.1,47.43,40.26,54,45.99,5.28-2.39,30.47-12.56,62.39-19.6-2.78-17.02-13.01-33.25-28.72-45.99-21.89,9.19-50.42,14.7-76.58,1.93-.13-.05-14.29-6.75-28.25-6.42-20.75.48-29.74,9.46-39.25,18.97l-12.05,12.99Z"/>
  <path class="mpi2" d="m349.44,220.97c-.45-.4-44.67-39.09-54.69-46.62-5.8-4.35-9.02-5.46-12.41-5.89-1.76-.23-4.2.1-5.9.57-4.66,1.27-10.75,5.34-16.16,9.63-5.6,4.46-10.88,8.66-15.79,9.76-6.26,1.4-13.91-.25-17.4-2.61-1.41-.95-2.41-2.05-2.89-3.16-1.29-2.99,1.09-5.38,1.48-5.78l12.2-13.2c1.42-1.41,2.85-2.83,4.31-4.23-3.94.51-7.58,1.52-11.12,2.5-4.42,1.24-8.68,2.42-12.98,2.42-1.8,0-11.42-1.58-13.25-2.07-11.05-3.02-23.56-5.97-38.04-12.73-17.35,12.91-28.65,28.77-32,46.56,2.49.66,9.02,2.15,10.71,2.52,39.26,8.73,51.49,17.72,53.71,19.6,2.4-2.67,5.87-4.36,9.73-4.36,4.35,0,8.26,2.19,10.64,5.56,2.25-1.78,5.35-3.3,9.36-3.29,1.82,0,3.71.34,5.62.98,4.43,1.52,6.72,4.47,7.9,7.14,1.48-.67,3.31-1.17,5.46-1.16,2.12,0,4.32.48,6.53,1.44,7.24,3.11,8.36,10.22,7.71,15.58.52-.06,1.04-.08,1.56-.08,8.58,0,15.56,6.98,15.56,15.57,0,2.66-.68,5.16-1.86,7.35,2.34,1.31,8.29,4.28,13.52,3.62,4.17-.53,5.76-1.95,6.32-2.76.39-.55.8-1.2.42-1.66l-11.08-12.3s-1.82-1.73-1.22-2.39c.62-.68,1.75.3,2.55.96,5.64,4.71,12.52,11.81,12.52,11.81.12.08.57.98,3.12,1.43,2.19.39,6.07.17,8.76-2.04.67-.56,1.35-1.25,1.93-1.97-.05.04-.09.08-.13.1,2.84-3.63-.32-7.29-.32-7.29l-12.93-14.52s-1.85-1.71-1.22-2.4c.56-.6,1.75.3,2.56.98,4.09,3.42,9.88,9.23,15.42,14.66,1.09.79,5.96,3.8,12.41-.43,3.92-2.57,4.7-5.73,4.59-8.1-.27-3.15-2.73-5.4-2.73-5.4l-17.66-17.76s-1.87-1.59-1.21-2.4c.54-.68,1.75.3,2.55.96,5.62,4.71,20.86,18.68,20.86,18.68.22.15,5.48,3.9,11.99-.24,2.33-1.49,3.81-3.73,3.94-6.34.22-4.52-2.96-7.2-2.96-7.2Z"/>
  <path class="mpi2" d="m263.76,243.48c-2.74-.03-5.74,1.6-6.13,1.36-.22-.14.17-1.24.42-1.88.27-.63,3.87-11.48-4.92-15.25-6.73-2.89-10.85.36-12.26,1.83-.37.38-.54.35-.58-.13-.14-1.96-1.01-7.24-6.82-9.02-8.3-2.54-13.64,3.25-14.99,5.35-.61-4.73-4.61-8.4-9.5-8.41-5.32,0-9.64,4.3-9.65,9.63,0,5.32,4.31,9.64,9.64,9.64,2.59,0,4.93-1.03,6.66-2.69.06.05.08.14.05.32-.41,2.39-1.15,11.04,7.92,14.57,3.64,1.41,6.73.36,9.29-1.43.76-.54.89-.31.78.41-.33,2.23.09,6.99,6.77,9.7,5.08,2.07,8.09-.04,10.07-1.87.86-.78,1.09-.65,1.14.56.24,6.44,5.59,11.56,12.09,11.57,6.7,0,12.13-5.41,12.13-12.1,0-6.7-5.42-12.06-12.12-12.13Z"/>
  <path class="mpi1" d="m274.35,113.21c-79.31,0-143.6,42.18-143.6,93.92,0,1.34-.02,5.03-.02,5.5,0,54.9,56.19,99.35,143.6,99.35s143.61-44.45,143.61-99.34v-5.51c0-51.74-64.29-93.92-143.59-93.92Zm137.12,83.51c-31.21,6.94-54.49,17.01-60.32,19.61-13.62-11.89-45.1-39.26-53.63-45.66-4.87-3.67-8.2-5.6-11.12-6.47-1.31-.4-3.12-.85-5.45-.85-2.17,0-4.5.39-6.93,1.17-5.51,1.75-11,6.11-16.31,10.33l-.27.22c-4.95,3.93-10.06,8-13.93,8.86-1.69.38-3.43.58-5.16.58-4.34,0-8.23-1.26-9.69-3.12-.24-.31-.08-.81.48-1.52l.07-.1,11.99-12.91c9.39-9.39,18.25-18.25,38.66-18.72.34-.01.68-.02,1.02-.02,12.7.01,25.4,5.69,26.83,6.36,11.91,5.81,24.21,8.76,36.56,8.77,12.85,0,26.11-3.17,40.05-9.58,14.56,12.24,24.21,26.99,27.15,43.06Z"/>
</svg>
